<?xml version="1.0" standalone="no"?>
<!DOCTYPE svg PUBLIC "-//W3C//DTD SVG 20010904//EN"
 "http://www.w3.org/TR/2001/REC-SVG-20010904/DTD/svg10.dtd">
<svg version="1.0" xmlns="http://www.w3.org/2000/svg"
 width="512.000000pt" height="512.000000pt" viewBox="0 0 512.000000 512.000000"
 preserveAspectRatio="xMidYMid meet">
<metadata>
Created by potrace 1.14, written by Peter Selinger 2001-2017
</metadata>
<g transform="translate(0.000000,512.000000) scale(0.100000,-0.100000)"
fill="#000000" stroke="none">
<path d="M2333 5086 c-83 -40 -183 -130 -183 -164 l0 -22 410 0 c395 0 410 1
410 19 0 27 -119 134 -187 167 -55 28 -65 29 -218 32 l-160 3 -72 -35z"/>
<path d="M1978 4862 c-71 -43 -78 -178 -13 -232 14 -12 13 -16 -11 -41 -49
-51 -43 -164 11 -209 14 -12 13 -16 -11 -42 -40 -41 -46 -128 -12 -178 23 -34
26 -35 103 -40 44 -3 307 -5 584 -4 l504 1 29 32 c24 26 28 40 28 87 0 59 -19
108 -46 118 -13 5 -11 11 15 41 27 31 31 43 31 93 0 59 -27 122 -52 122 -6 0
1 13 17 30 37 38 47 126 21 175 -37 67 -15 65 -623 65 -498 -1 -550 -2 -575
-18z m791 -196 c27 -24 27 -40 -1 -66 -21 -19 -34 -20 -299 -20 -253 0 -279 2
-299 18 -30 25 -21 66 17 81 17 6 130 9 294 8 247 -2 269 -3 288 -21z m195
-288 c20 -29 20 -34 -4 -58 -19 -19 -33 -20 -402 -20 -341 0 -383 2 -400 17
-22 20 -23 46 -2 67 13 14 64 16 404 16 l389 0 15 -22z"/>
<path d="M1998 4058 c-46 -12 -113 -69 -137 -117 -33 -63 -45 -125 -56 -276
-7 -103 -15 -182 -21 -220 -32 -196 -132 -510 -247 -775 -76 -176 -95 -217
-203 -436 -170 -347 -207 -485 -207 -774 -1 -270 34 -420 149 -655 206 -421
612 -722 1064 -788 137 -20 368 -15 497 12 283 59 519 187 723 391 230 231
354 472 416 810 19 104 13 407 -11 515 -32 151 -77 270 -185 490 -59 121 -120
247 -135 280 -15 33 -38 83 -50 110 -83 183 -194 500 -234 675 -30 127 -36
165 -46 275 -3 39 -8 95 -11 125 -11 133 -18 168 -41 217 -30 63 -74 109 -126
133 -36 16 -84 18 -570 18 -308 0 -547 -4 -569 -10z m-555 -1943 c-3 -9 -8
-14 -10 -11 -3 3 -2 9 2 15 9 16 15 13 8 -4z m-13 -33 c0 -5 -7 -17 -15 -28
-14 -18 -14 -17 -4 9 12 27 19 34 19 19z m-30 -60 c0 -5 -7 -17 -15 -28 -14
-18 -14 -17 -4 9 12 27 19 34 19 19z"/>
</g>
</svg>
